{"glyphs":{":":{"x_min":0,"x_max":214,"ha":214,"o":"m 76 435 b 76 418 90 404 107 404 b 124 404 138 418 138 435 b 138 452 124 466 107 466 b 90 466 76 452 76 435 z m 76 57 b 76 40 90 26 107 26 b 124 26 138 40 138 57 b 138 74 124 88 107 88 b 90 88 76 74 76 57 z"},"$":{"x_min":0,"x_max":585,"ha":585,"o":"m 305 789 l 285 789 l 285 718 b 174 716 64 664 64 542 b 64 410 180 373 285 351 l 285 12 b 205 12 125 48 81 112 l 58 102 b 110 24 200 -11 285 -11 l 285 -95 l 305 -95 l 305 -11 b 416 -11 530 53 530 172 b 530 308 418 349 305 372 l 305 694 b 380 691 454 660 489 600 l 512 609 b 470 682 391 715 305 718 z m 89 542 b 89 643 187 692 285 694 l 285 376 b 176 400 89 440 89 542 z m 502 172 b 502 67 399 12 305 12 l 305 347 b 410 323 502 286 502 172 z"},"?":{"x_min":0,"x_max":452,"ha":452,"o":"m 49 630 b 88 663 148 690 199 690 b 293 690 384 636 386 526 b 388 411 286 337 175 330 l 179 120 l 197 120 l 203 313 b 310 324 408 399 409 525 b 410 649 306 713 201 713 b 140 713 77 685 35 644 z m 188 51 b 173 51 161 39 161 24 b 161 9 173 -2 188 -2 b 202 -2 215 9 215 24 b 215 39 202 51 188 51 z"},"<":{"x_min":0,"x_max":442,"ha":442,"o":"m 70 303 l 370 480 l 370 506 l 48 316 l 48 290 b 157 225 261 168 370 103 l 370 128 z"},"'":{"x_min":0,"x_max":178,"ha":178,"o":"m 105 708 l 78 708 l 78 531 l 97 531 z"},"=":{"x_min":0,"x_max":529,"ha":529,"o":"m 451 382 l 78 382 l 78 360 l 451 360 z m 451 244 l 78 244 l 78 222 l 451 222 z"},"a":{"x_min":0,"x_max":600,"ha":600,"o":"m 139 253 l 461 253 l 555 0 l 582 0 l 320 708 l 280 708 l 18 0 l 45 0 z m 302 684 l 452 278 l 148 278 l 298 684 z"},"L":{"x_min":0,"x_max":493,"ha":493,"o":"m 472 0 l 472 25 l 118 25 l 118 708 l 93 708 l 93 0 z"},"3":{"x_min":0,"x_max":568,"ha":568,"o":"m 45 95 b 95 21 173 -10 268 -10 b 387 -10 506 57 508 186 b 508 271 483 348 376 387 b 456 422 475 487 475 546 b 475 664 371 718 267 718 b 184 718 115 692 74 628 l 94 618 b 130 671 194 695 265 695 b 356 695 451 649 451 546 b 451 446 383 396 290 396 l 222 396 l 222 372 l 290 372 b 409 373 483 310 483 187 b 483 73 376 14 268 14 b 178 14 114 42 66 108 z"},";":{"x_min":0,"x_max":272,"ha":272,"o":"m 109 420 b 109 403 123 389 140 389 b 157 389 171 403 171 420 b 171 437 157 451 140 451 b 123 451 109 437 109 420 z m 167 45 l 126 45 l 82 -99 l 107 -99 z"},"J":{"x_min":0,"x_max":577,"ha":577,"o":"m 228 685 l 464 685 l 464 187 b 464 70 356 14 252 14 b 174 14 82 51 52 141 l 27 133 b 56 39 153 -10 251 -10 b 370 -10 489 57 489 187 l 489 708 l 228 708 z"},"V":{"x_min":0,"x_max":602,"ha":602,"o":"m 554 709 l 305 29 l 300 29 l 45 708 l 16 708 l 282 0 l 322 0 l 582 709 z"},"\"":{"x_min":0,"x_max":266,"ha":266,"o":"m 103 708 l 78 708 l 78 532 l 91 532 z m 195 708 l 170 708 l 170 532 l 183 532 z"},"7":{"x_min":0,"x_max":493,"ha":493,"o":"m 39 684 l 443 684 l 70 0 l 98 0 l 472 684 l 458 708 l 39 708 z"},"S":{"x_min":0,"x_max":578,"ha":578,"o":"m 86 546 b 93 652 189 694 289 694 b 368 694 449 664 486 600 l 509 609 b 465 686 380 718 289 718 b 176 718 65 663 61 546 b 55 412 182 372 288 350 b 398 326 508 291 499 165 b 485 61 388 14 290 14 b 207 14 124 48 78 114 l 55 104 b 108 24 201 -10 288 -10 b 404 -10 518 51 526 165 b 536 304 410 351 294 374 b 180 397 78 441 86 546 z"},"}":{"x_min":0,"x_max":263,"ha":263,"o":"m 43 747 l 43 727 l 65 727 b 123 727 124 692 124 634 l 124 490 b 123 380 160 326 188 315 b 171 303 124 265 124 136 l 124 -9 b 124 -57 114 -94 58 -94 l 43 -94 l 43 -115 l 60 -115 b 124 -115 147 -73 147 -9 l 147 135 b 147 213 162 289 217 303 l 217 321 b 162 335 146 412 146 490 l 146 635 b 146 703 134 747 66 747 z"},"Z":{"x_min":0,"x_max":549,"ha":549,"o":"m 49 686 l 484 686 l 29 12 l 39 0 l 504 0 l 504 22 l 63 22 l 518 695 l 509 708 l 49 708 z"},"x":{"x_min":0,"x_max":547,"ha":547,"o":"m 288 353 l 521 708 l 492 708 l 274 376 l 55 708 l 27 708 l 259 353 l 26 0 l 57 0 l 274 336 l 491 0 l 520 0 z"},")":{"x_min":0,"x_max":246,"ha":246,"o":"m 61 -110 b 146 14 186 163 186 314 b 186 469 142 625 57 750 b 55 749 53 747 52 747 l 53 748 l 37 738 b 117 610 159 461 159 312 b 159 170 121 27 40 -97 z"},"&":{"x_min":0,"x_max":609,"ha":609,"o":"m 453 165 l 250 388 l 273 402 b 346 440 420 490 420 578 b 420 655 353 710 280 710 b 197 710 122 656 122 567 b 122 510 169 448 213 396 b 128 346 48 275 48 178 b 48 66 135 -4 243 -4 b 334 -4 397 47 458 129 l 550 26 l 579 26 l 469 151 l 532 254 l 515 263 z m 277 688 b 346 688 396 641 396 574 b 396 494 319 447 235 405 b 199 446 147 512 147 569 b 147 639 207 688 277 688 z m 442 143 b 399 81 333 17 251 17 b 140 17 73 81 73 180 b 73 273 156 340 228 382 z"},"_":{"x_min":0,"x_max":589,"ha":589,"o":"m 527 -21 l 61 -21 l 61 -43 l 527 -43 z"},"v":{"x_min":0,"x_max":602,"ha":602,"o":"m 554 709 l 305 29 l 300 29 l 45 708 l 16 708 l 282 0 l 322 0 l 582 709 z"},"O":{"x_min":0,"x_max":682,"ha":682,"o":"m 77 191 b 77 58 208 -10 340 -10 b 472 -10 604 58 604 191 l 604 518 b 604 651 472 718 340 718 b 208 718 77 651 77 518 z m 102 518 b 102 640 220 693 339 694 b 458 694 579 642 579 518 l 579 191 b 579 73 459 15 340 15 b 220 15 102 73 102 191 z"},"(":{"x_min":0,"x_max":246,"ha":246,"o":"m 187 762 b 104 638 60 490 60 343 b 60 195 104 45 191 -80 l 210 -69 b 127 50 86 196 86 341 b 86 487 125 631 205 748 z"},"C":{"x_min":0,"x_max":584,"ha":584,"o":"m 78 188 b 78 57 203 -10 326 -10 b 416 -10 507 25 549 93 l 527 104 b 488 44 406 15 326 15 b 216 15 103 72 103 188 l 103 520 b 103 636 216 694 326 694 b 407 694 490 661 527 600 l 549 616 b 507 684 418 718 329 718 b 204 718 78 650 78 520 z"},"W":{"x_min":0,"x_max":927,"ha":927,"o":"m 874 708 l 676 33 l 670 33 l 480 602 l 447 602 l 258 35 l 253 35 l 52 708 l 25 708 l 235 0 l 274 0 l 464 578 l 653 0 l 694 0 l 901 708 z"},"A":{"x_min":0,"x_max":600,"ha":600,"o":"m 139 253 l 461 253 l 555 0 l 582 0 l 320 708 l 280 708 l 18 0 l 45 0 z m 302 684 l 452 278 l 148 278 l 298 684 z"},"f":{"x_min":0,"x_max":537,"ha":537,"o":"m 501 683 l 501 708 l 93 708 l 93 0 l 118 0 l 118 328 l 466 328 l 466 353 l 118 353 l 118 683 z"},"Q":{"x_min":0,"x_max":682,"ha":682,"o":"m 581 -17 l 600 -4 l 547 59 b 583 96 604 128 604 191 l 604 518 b 604 651 472 718 341 718 b 209 718 78 651 78 518 l 78 191 b 78 58 209 -10 341 -10 b 404 -10 473 6 529 44 z m 472 156 l 453 142 l 515 64 b 462 30 399 14 341 14 b 221 14 103 76 103 191 l 103 518 b 103 640 222 693 341 694 b 460 694 579 636 579 518 l 579 191 b 579 153 569 110 531 79 z"},"w":{"x_min":0,"x_max":927,"ha":927,"o":"m 874 708 l 676 33 l 670 33 l 480 602 l 447 602 l 258 35 l 253 35 l 52 708 l 25 708 l 235 0 l 274 0 l 464 578 l 653 0 l 694 0 l 901 708 z"},"-":{"x_min":0,"x_max":421,"ha":421,"o":"m 345 312 l 76 312 l 76 288 l 345 288 z"},"E":{"x_min":0,"x_max":565,"ha":565,"o":"m 118 683 l 514 683 l 514 708 l 93 708 l 93 0 l 514 0 l 514 25 l 118 25 l 118 339 l 484 339 l 484 366 l 118 366 z"},"s":{"x_min":0,"x_max":578,"ha":578,"o":"m 86 546 b 93 652 189 694 289 694 b 368 694 449 664 486 600 l 509 609 b 465 686 380 718 289 718 b 176 718 65 663 61 546 b 55 412 182 372 288 350 b 398 326 508 291 499 165 b 485 61 388 14 290 14 b 207 14 124 48 78 114 l 55 104 b 108 24 201 -10 288 -10 b 404 -10 518 51 526 165 b 536 304 410 351 294 374 b 180 397 78 441 86 546 z"},">":{"x_min":0,"x_max":445,"ha":445,"o":"m 72 480 b 170 424 279 359 376 303 l 72 126 l 72 103 l 397 290 l 397 316 b 288 382 181 440 72 506 z"},"l":{"x_min":0,"x_max":492,"ha":492,"o":"m 471 0 l 471 25 l 117 25 l 117 708 l 92 708 l 92 0 z"},"8":{"x_min":0,"x_max":614,"ha":614,"o":"m 316 -10 b 436 -10 552 62 555 191 b 554 293 506 357 413 383 b 497 413 521 485 521 546 b 521 660 419 718 316 718 l 297 718 b 193 718 93 660 92 546 b 92 483 117 410 201 382 b 101 352 59 287 59 191 b 61 62 178 -10 297 -10 z m 316 696 b 409 696 498 649 498 546 b 498 428 405 392 316 392 l 297 392 b 208 392 115 428 115 546 b 115 649 204 696 297 696 z m 297 13 b 199 13 83 70 83 192 b 83 334 185 372 297 372 l 316 372 b 428 372 530 334 530 192 b 530 70 414 13 316 13 z"},"\\":{"x_min":0,"x_max":385,"ha":385,"o":"m 335 -29 l 357 -22 l 48 748 l 29 741 z"},"e":{"x_min":0,"x_max":565,"ha":565,"o":"m 118 683 l 514 683 l 514 708 l 93 708 l 93 0 l 514 0 l 514 25 l 118 25 l 118 339 l 484 339 l 484 366 l 118 366 z"},"b":{"x_min":0,"x_max":627,"ha":627,"o":"m 435 376 l 466 393 b 515 422 537 476 537 536 b 537 648 456 708 352 708 l 93 708 l 93 0 l 351 0 b 474 0 568 43 571 189 b 572 252 548 331 470 364 z m 118 387 l 118 685 l 352 685 b 442 685 513 634 513 535 b 513 433 445 387 352 387 z m 118 24 l 118 363 l 352 363 b 471 364 546 314 546 190 b 546 67 465 22 352 24 z"},"%":{"x_min":0,"x_max":714,"ha":714,"o":"m 614 731 l 594 743 l 102 -35 b 109 -39 115 -44 123 -48 z m 324 525 b 324 640 272 706 186 706 b 106 706 48 643 48 527 b 48 409 98 345 186 345 b 266 345 324 413 324 525 z m 296 525 b 296 419 259 372 186 372 b 111 372 77 417 77 527 b 77 629 111 680 185 680 b 254 680 296 633 296 525 z m 666 173 b 666 288 614 354 528 354 b 448 354 390 291 390 175 b 390 57 440 -7 528 -7 b 608 -7 666 61 666 173 z m 638 172 b 638 67 600 20 527 20 b 452 20 417 65 417 175 b 417 276 452 327 526 327 b 595 327 638 280 638 172 z"},"m":{"x_min":0,"x_max":797,"ha":797,"o":"m 382 112 l 416 112 l 670 690 l 679 690 l 679 0 l 704 0 l 704 708 l 651 708 l 399 135 l 146 708 l 93 708 l 93 0 l 118 0 l 118 682 l 127 683 z"},"#":{"x_min":0,"x_max":729,"ha":729,"o":"m 457 259 l 513 454 l 677 454 l 684 475 l 521 475 l 592 709 l 567 709 l 499 475 l 298 475 l 368 709 l 345 709 l 276 475 l 91 475 l 85 454 l 269 454 l 212 259 l 50 259 l 45 239 l 205 239 l 132 0 l 156 0 l 228 239 l 428 239 l 355 0 l 379 0 l 451 239 l 636 239 l 642 259 z m 291 454 l 492 454 l 435 259 l 234 259 z"},",":{"x_min":0,"x_max":192,"ha":192,"o":"m 119 41 l 84 41 l 29 -121 l 51 -121 z"},"n":{"x_min":0,"x_max":671,"ha":671,"o":"m 132 708 l 93 708 l 93 0 l 119 0 l 120 676 l 535 0 l 578 0 l 578 708 l 553 708 l 553 24 z"},"h":{"x_min":0,"x_max":683,"ha":683,"o":"m 118 341 l 565 341 l 565 0 l 590 0 l 590 708 l 565 708 l 565 366 l 118 366 l 118 708 l 93 708 l 93 0 l 118 0 z"},"z":{"x_min":0,"x_max":549,"ha":549,"o":"m 49 686 l 484 686 l 29 12 l 39 0 l 504 0 l 504 22 l 63 22 l 518 695 l 509 708 l 49 708 z"},"B":{"x_min":0,"x_max":627,"ha":627,"o":"m 435 376 l 466 393 b 515 422 537 476 537 536 b 537 648 456 708 352 708 l 93 708 l 93 0 l 351 0 b 474 0 568 43 571 189 b 572 252 548 331 470 364 z m 118 387 l 118 685 l 352 685 b 442 685 513 634 513 535 b 513 433 445 387 352 387 z m 118 24 l 118 363 l 352 363 b 471 364 546 314 546 190 b 546 67 465 22 352 24 z"},"K":{"x_min":0,"x_max":591,"ha":591,"o":"m 118 708 l 93 708 l 93 0 l 118 0 l 118 243 l 224 349 l 540 0 l 569 0 l 242 367 l 569 708 l 537 708 l 118 278 z"},"R":{"x_min":0,"x_max":611,"ha":611,"o":"m 545 0 l 306 316 l 344 316 b 473 316 563 369 563 516 b 560 660 466 708 343 708 l 93 708 l 93 0 l 117 0 l 117 316 l 278 316 l 516 0 z m 117 338 l 117 685 l 344 685 b 457 687 539 643 539 515 b 539 390 473 338 344 338 z"},"T":{"x_min":0,"x_max":541,"ha":541,"o":"m 519 708 l 22 708 l 22 683 l 258 683 l 258 0 l 283 0 l 283 683 l 519 683 z"},"P":{"x_min":0,"x_max":602,"ha":602,"o":"m 118 0 l 118 282 l 344 282 b 488 283 560 390 560 493 b 560 597 487 706 343 708 l 93 708 l 93 0 z m 118 307 l 118 685 l 343 685 b 471 684 535 587 535 494 b 535 402 473 307 343 307 z"},"|":{"x_min":0,"x_max":180,"ha":180,"o":"m 101 -161 l 101 747 l 79 747 l 79 -161 z"},"t":{"x_min":0,"x_max":541,"ha":541,"o":"m 519 708 l 22 708 l 22 683 l 258 683 l 258 0 l 283 0 l 283 683 l 519 683 z"},"M":{"x_min":0,"x_max":797,"ha":797,"o":"m 382 112 l 416 112 l 670 690 l 679 690 l 679 0 l 704 0 l 704 708 l 651 708 l 399 135 l 146 708 l 93 708 l 93 0 l 118 0 l 118 682 l 127 683 z"},"g":{"x_min":0,"x_max":634,"ha":634,"o":"m 78 191 b 78 57 202 -10 326 -10 b 450 -10 575 57 575 191 l 575 349 l 333 349 l 333 325 l 550 325 l 550 191 b 550 73 437 14 326 14 b 214 14 103 73 103 191 l 103 520 b 103 636 213 693 324 693 b 405 693 486 665 522 600 l 545 615 b 503 683 415 718 326 718 b 202 718 78 650 78 520 z"},"j":{"x_min":0,"x_max":577,"ha":577,"o":"m 228 685 l 464 685 l 464 187 b 464 70 356 14 252 14 b 174 14 82 51 52 141 l 27 133 b 56 39 153 -10 251 -10 b 370 -10 489 57 489 187 l 489 708 l 228 708 z"},"i":{"x_min":0,"x_max":211,"ha":211,"o":"m 118 708 l 93 708 l 93 0 l 118 0 z"},"y":{"x_min":0,"x_max":550,"ha":550,"o":"m 286 281 l 537 708 l 506 708 l 274 309 l 49 708 l 19 708 l 261 281 l 261 0 l 286 0 z"},"@":{"x_min":0,"x_max":779,"ha":779,"o":"m 590 474 l 569 474 l 539 389 l 534 390 b 526 484 461 496 424 496 b 291 496 210 357 210 225 b 210 156 249 96 325 96 b 370 96 421 113 470 181 b 456 119 483 101 515 99 b 603 93 730 200 730 371 b 730 540 590 653 409 653 b 216 653 61 504 61 301 b 61 47 271 -81 491 -9 l 485 10 b 275 -58 82 66 82 301 b 82 486 216 632 411 632 b 567 632 708 533 708 371 b 708 238 617 121 527 121 b 471 121 489 173 502 212 z m 230 227 b 230 329 293 478 420 476 b 524 483 530 369 504 290 b 476 206 410 116 330 116 b 269 116 230 163 230 227 z"},".":{"x_min":0,"x_max":214,"ha":214,"o":"m 76 28 b 76 11 90 -3 107 -3 b 124 -3 138 11 138 28 b 138 45 124 59 107 59 b 90 59 76 45 76 28 z"},"p":{"x_min":0,"x_max":602,"ha":602,"o":"m 118 0 l 118 282 l 344 282 b 488 283 560 390 560 493 b 560 597 487 706 343 708 l 93 708 l 93 0 z m 118 307 l 118 685 l 343 685 b 471 684 535 587 535 494 b 535 402 473 307 343 307 z"},"X":{"x_min":0,"x_max":547,"ha":547,"o":"m 288 353 l 521 708 l 492 708 l 274 376 l 55 708 l 27 708 l 259 353 l 26 0 l 57 0 l 274 336 l 491 0 l 520 0 z"},"*":{"x_min":0,"x_max":442,"ha":442,"o":"m 233 709 l 213 709 b 213 660 215 603 215 555 l 63 606 b 61 601 61 595 59 586 b 108 571 163 553 211 539 l 112 411 l 128 398 b 156 438 194 487 222 528 l 316 398 l 332 409 l 237 539 l 384 585 l 378 605 b 352 596 327 584 231 554 z"},"Y":{"x_min":0,"x_max":550,"ha":550,"o":"m 286 281 l 537 708 l 506 708 l 274 309 l 49 708 l 19 708 l 261 281 l 261 0 l 286 0 z"},"c":{"x_min":0,"x_max":584,"ha":584,"o":"m 78 188 b 78 57 203 -10 326 -10 b 416 -10 507 25 549 93 l 527 104 b 488 44 406 15 326 15 b 216 15 103 72 103 188 l 103 520 b 103 636 216 694 326 694 b 407 694 490 661 527 600 l 549 616 b 507 684 418 718 329 718 b 204 718 78 650 78 520 z"},"!":{"x_min":0,"x_max":194,"ha":194,"o":"m 84 132 l 109 132 l 109 709 l 84 709 z m 66 30 b 66 13 80 -1 97 -1 b 114 -1 128 13 128 30 b 128 47 114 61 97 61 b 80 61 66 47 66 30 z"},"/":{"x_min":0,"x_max":372,"ha":372,"o":"m 323 723 l 31 -9 b 33 -10 33 -10 52 -15 b 101 108 148 229 341 717 z"},"[":{"x_min":0,"x_max":237,"ha":237,"o":"m 103 730 l 195 730 l 195 751 l 79 751 l 79 -120 l 195 -120 l 195 -98 l 103 -98 z"},"6":{"x_min":0,"x_max":618,"ha":618,"o":"m 534 622 b 492 688 410 718 320 718 b 197 719 74 655 74 529 l 74 179 b 74 53 197 -11 320 -10 b 442 -10 561 54 561 179 l 561 241 b 561 366 442 429 320 430 b 249 430 151 411 99 320 l 99 528 b 99 640 207 694 320 694 b 400 694 474 670 511 610 z m 536 180 b 536 69 431 14 320 14 b 207 14 99 68 99 180 l 99 240 b 99 352 207 406 320 406 b 431 406 536 351 536 240 z"},"r":{"x_min":0,"x_max":611,"ha":611,"o":"m 545 0 l 306 316 l 344 316 b 473 316 563 369 563 516 b 560 660 466 708 343 708 l 93 708 l 93 0 l 117 0 l 117 316 l 278 316 l 516 0 z m 117 338 l 117 685 l 344 685 b 457 687 539 643 539 515 b 539 390 473 338 344 338 z"},"2":{"x_min":0,"x_max":549,"ha":549,"o":"m 271 693 b 388 689 463 618 463 532 b 463 484 433 430 385 380 l 44 23 l 55 0 l 490 0 l 490 25 l 82 25 l 404 361 b 457 416 489 478 489 531 b 489 636 398 717 272 718 b 165 717 98 681 59 600 l 81 590 b 117 659 184 696 271 693 z"},"{":{"x_min":0,"x_max":263,"ha":263,"o":"m 220 727 l 220 748 l 197 748 b 123 748 117 700 117 635 l 117 490 b 117 412 101 335 46 321 l 46 303 b 101 289 116 225 116 135 l 116 -10 b 116 -74 133 -115 203 -115 l 220 -115 l 220 -94 l 204 -94 b 148 -94 139 -63 139 -9 l 139 138 b 139 267 99 302 76 312 b 104 323 141 377 140 488 l 140 634 b 140 695 140 727 198 727 z"},"9":{"x_min":0,"x_max":618,"ha":618,"o":"m 85 90 b 129 21 206 -10 298 -10 b 421 -11 544 54 544 180 l 544 529 b 542 658 421 719 298 718 b 176 718 57 654 57 529 l 57 467 b 57 342 176 279 298 278 b 370 278 456 286 519 380 l 519 183 b 519 71 411 14 298 14 b 218 14 146 42 109 102 z m 82 528 b 82 639 187 694 298 694 b 411 694 520 640 520 528 l 520 468 b 520 356 411 302 298 302 b 187 302 82 357 82 468 z"}," ":{"x_min":0,"x_max":246,"ha":246,"o":""},"I":{"x_min":0,"x_max":211,"ha":211,"o":"m 118 708 l 93 708 l 93 0 l 118 0 z"},"H":{"x_min":0,"x_max":683,"ha":683,"o":"m 118 341 l 565 341 l 565 0 l 590 0 l 590 708 l 565 708 l 565 366 l 118 366 l 118 708 l 93 708 l 93 0 l 118 0 z"},"4":{"x_min":0,"x_max":572,"ha":572,"o":"m 456 222 l 456 708 l 421 708 l 31 229 l 47 199 l 431 199 l 431 0 l 456 0 l 456 199 l 525 199 l 525 222 z m 432 684 l 431 222 l 56 222 z"},"~":{"x_min":0,"x_max":530,"ha":530,"o":"m 443 339 b 420 305 393 278 351 278 b 290 278 248 348 184 348 b 134 348 99 317 79 283 b 81 281 86 274 90 270 b 114 304 141 326 183 326 b 235 326 290 256 351 256 b 397 256 433 289 453 327 z"},"D":{"x_min":0,"x_max":641,"ha":641,"o":"m 93 708 l 93 0 l 332 0 b 456 0 560 56 560 189 l 560 518 b 560 652 456 708 332 708 z m 118 25 l 118 683 l 332 683 b 444 683 535 636 535 518 l 535 189 b 535 72 444 25 332 25 z"},"^":{"x_min":0,"x_max":509,"ha":509,"o":"m 237 708 l 61 452 l 88 452 l 251 691 l 420 452 l 447 452 b 383 536 324 621 265 708 z"},"0":{"x_min":0,"x_max":625,"ha":625,"o":"m 313 -10 b 425 -10 551 50 551 179 l 551 529 b 551 659 425 718 313 718 b 200 718 74 659 74 529 l 74 179 b 74 50 200 -10 313 -10 z m 99 529 b 99 651 215 693 313 693 b 410 693 526 651 526 529 l 526 179 b 526 58 410 15 313 15 b 215 15 99 58 99 179 z"},"F":{"x_min":0,"x_max":537,"ha":537,"o":"m 501 683 l 501 708 l 93 708 l 93 0 l 118 0 l 118 328 l 466 328 l 466 353 l 118 353 l 118 683 z"},"`":{"x_min":0,"x_max":210,"ha":210,"o":"m 94 759 l 119 759 l 57 862 l 22 862 z"},"k":{"x_min":0,"x_max":591,"ha":591,"o":"m 118 708 l 93 708 l 93 0 l 118 0 l 118 243 l 224 349 l 540 0 l 569 0 l 242 367 l 569 708 l 537 708 l 118 278 z"},"u":{"x_min":0,"x_max":673,"ha":673,"o":"m 113 708 l 88 708 l 88 194 b 88 59 212 -10 336 -10 b 460 -10 585 59 585 194 l 585 708 l 560 708 l 560 194 b 560 74 447 14 336 14 b 224 14 113 74 113 194 z"},"]":{"x_min":0,"x_max":238,"ha":238,"o":"m 133 -101 l 43 -101 l 43 -126 l 159 -126 l 159 751 l 43 751 l 43 727 l 133 727 z"},"U":{"x_min":0,"x_max":673,"ha":673,"o":"m 113 708 l 88 708 l 88 194 b 88 59 212 -10 336 -10 b 460 -10 585 59 585 194 l 585 708 l 560 708 l 560 194 b 560 74 447 14 336 14 b 224 14 113 74 113 194 z"},"o":{"x_min":0,"x_max":682,"ha":682,"o":"m 77 191 b 77 58 208 -10 340 -10 b 472 -10 604 58 604 191 l 604 518 b 604 651 472 718 340 718 b 208 718 77 651 77 518 z m 102 518 b 102 640 220 693 339 694 b 458 694 579 642 579 518 l 579 191 b 579 73 459 15 340 15 b 220 15 102 73 102 191 z"},"N":{"x_min":0,"x_max":671,"ha":671,"o":"m 132 708 l 93 708 l 93 0 l 119 0 l 120 676 l 535 0 l 578 0 l 578 708 l 553 708 l 553 24 z"},"+":{"x_min":0,"x_max":577,"ha":577,"o":"m 281 352 l 50 352 l 50 329 l 281 329 l 281 102 l 303 102 l 303 329 l 526 329 l 526 352 l 303 352 l 303 578 l 281 578 z"},"G":{"x_min":0,"x_max":634,"ha":634,"o":"m 78 191 b 78 57 202 -10 326 -10 b 450 -10 575 57 575 191 l 575 349 l 333 349 l 333 325 l 550 325 l 550 191 b 550 73 437 14 326 14 b 214 14 103 73 103 191 l 103 520 b 103 636 213 693 324 693 b 405 693 486 665 522 600 l 545 615 b 503 683 415 718 326 718 b 202 718 78 650 78 520 z"},"q":{"x_min":0,"x_max":682,"ha":682,"o":"m 581 -17 l 600 -4 l 547 59 b 583 96 604 128 604 191 l 604 518 b 604 651 472 718 341 718 b 209 718 78 651 78 518 l 78 191 b 78 58 209 -10 341 -10 b 404 -10 473 6 529 44 z m 472 156 l 453 142 l 515 64 b 462 30 399 14 341 14 b 221 14 103 76 103 191 l 103 518 b 103 640 222 693 341 694 b 460 694 579 636 579 518 l 579 191 b 579 153 569 110 531 79 z"},"d":{"x_min":0,"x_max":641,"ha":641,"o":"m 93 708 l 93 0 l 332 0 b 456 0 560 56 560 189 l 560 518 b 560 652 456 708 332 708 z m 118 25 l 118 683 l 332 683 b 444 683 535 636 535 518 l 535 189 b 535 72 444 25 332 25 z"},"1":{"x_min":0,"x_max":291,"ha":291,"o":"m 199 708 l 165 708 l 20 550 l 36 536 l 175 683 l 175 0 l 199 0 z"},"5":{"x_min":0,"x_max":574,"ha":574,"o":"m 61 93 b 107 22 190 -11 279 -11 b 455 -11 521 95 521 251 b 519 390 402 455 287 456 b 231 457 172 447 105 418 l 105 685 l 484 685 l 484 708 l 80 708 l 80 385 l 91 386 b 156 419 211 432 286 432 b 396 432 495 365 495 250 b 495 69 399 15 279 15 b 202 15 123 48 85 105 z"}}}
